<svg width="225" height="88" viewBox="0 0 225 88" fill="none" xmlns="http://www.w3.org/2000/svg">
<path d="M11.4229 88C9.17812 88 7.00435 87.6648 4.90163 86.9944C2.82732 86.2961 1.19344 85.4022 0 84.3128L1.57705 81.0447C2.71365 82.0503 4.16283 82.8743 5.92458 83.5168C7.71474 84.1313 9.54752 84.4385 11.4229 84.4385C13.895 84.4385 15.742 84.0335 16.9639 83.2235C18.1857 82.3855 18.7967 81.2821 18.7967 79.9134C18.7967 78.9078 18.4557 78.0978 17.7737 77.4832C17.1202 76.8408 16.2961 76.352 15.3016 76.0168C14.3355 75.6816 12.9573 75.3045 11.1672 74.8855C8.92238 74.3547 7.10381 73.824 5.71146 73.2933C4.34753 72.7626 3.1683 71.9525 2.17377 70.8631C1.20765 69.7458 0.724588 68.2514 0.724588 66.3799C0.724588 64.8156 1.13661 63.405 1.96065 62.148C2.81311 60.8911 4.09179 59.8855 5.79671 59.1313C7.50162 58.3771 9.61856 58 12.1475 58C13.9093 58 15.6426 58.2235 17.3475 58.6704C19.0524 59.1173 20.5158 59.7598 21.7377 60.5978L20.3311 63.9497C19.0808 63.1676 17.7453 62.581 16.3246 62.1899C14.9038 61.7709 13.5114 61.5615 12.1475 61.5615C9.73222 61.5615 7.91364 61.9944 6.69179 62.8603C5.49835 63.7263 4.90163 64.8436 4.90163 66.2123C4.90163 67.2179 5.24261 68.0419 5.92458 68.6844C6.60654 69.2989 7.44479 69.7877 8.43932 70.1508C9.46227 70.486 10.8404 70.8492 12.5737 71.2402C14.8185 71.7709 16.6229 72.3017 17.9868 72.8324C19.3508 73.3631 20.5158 74.1732 21.4819 75.2626C22.4764 76.352 22.9737 77.8184 22.9737 79.662C22.9737 81.1983 22.5475 82.6089 21.695 83.8939C20.8426 85.1508 19.5497 86.1564 17.8164 86.9106C16.083 87.6369 13.9519 88 11.4229 88Z" fill="#72A5E0"/>
<path d="M38.9187 74.6341L33.4629 80.081V87.6648H29.2006V58.3352H33.4629V74.7179L49.6596 58.3352H54.5186L41.7744 71.5335L55.3285 87.6648H50.3416L38.9187 74.6341Z" fill="#72A5E0"/>
<path d="M69.2192 77.5251V87.6648H64.9995V77.4413L53.1504 58.3352H57.711L67.2585 73.7961L76.8487 58.3352H81.0683L69.2192 77.5251Z" fill="#72A5E0"/>
<path d="M104.969 72.4553C106.702 72.9302 108.066 73.7961 109.061 75.0531C110.055 76.2821 110.552 77.8464 110.552 79.7458C110.552 82.2877 109.572 84.243 107.611 85.6117C105.679 86.9804 102.852 87.6648 99.1294 87.6648H84.8934V58.3352H98.277C101.687 58.3352 104.315 59.0056 106.162 60.3464C108.038 61.6872 108.975 63.5447 108.975 65.919C108.975 67.4553 108.606 68.7821 107.867 69.8994C107.157 71.0168 106.191 71.8687 104.969 72.4553ZM89.1557 61.729V71.1145H97.8934C100.081 71.1145 101.758 70.7235 102.923 69.9413C104.116 69.1313 104.713 67.9581 104.713 66.4218C104.713 64.8855 104.116 63.7263 102.923 62.9441C101.758 62.1341 100.081 61.729 97.8934 61.729H89.1557ZM98.9589 84.2709C101.374 84.2709 103.193 83.8799 104.415 83.0978C105.637 82.3156 106.247 81.0866 106.247 79.4106C106.247 76.1425 103.818 74.5084 98.9589 74.5084H89.1557V84.2709H98.9589Z" fill="#72A5E0"/>
<path d="M117.152 58.3352H121.414V87.6648H117.152V58.3352Z" fill="#72A5E0"/>
<path d="M150.294 87.6648L143.858 78.6564C143.062 78.7123 142.437 78.7402 141.983 78.7402H134.609V87.6648H130.347V58.3352H141.983C145.847 58.3352 148.888 59.243 151.104 61.0587C153.32 62.8743 154.429 65.3743 154.429 68.5587C154.429 70.8212 153.86 72.7486 152.724 74.3408C151.587 75.933 149.967 77.0922 147.865 77.8184L154.94 87.6648H150.294ZM141.855 75.1788C144.554 75.1788 146.614 74.6061 148.035 73.4609C149.456 72.3156 150.166 70.6816 150.166 68.5587C150.166 66.4358 149.456 64.8156 148.035 63.6983C146.614 62.5531 144.554 61.9804 141.855 61.9804H134.609V75.1788H141.855Z" fill="#72A5E0"/>
<path d="M161.315 58.3352H173.889C177.043 58.3352 179.842 58.9497 182.285 60.1788C184.729 61.4078 186.619 63.1397 187.954 65.3743C189.318 67.581 190 70.1229 190 73C190 75.8771 189.318 78.433 187.954 80.6676C186.619 82.8743 184.729 84.5922 182.285 85.8212C179.842 87.0503 177.043 87.6648 173.889 87.6648H161.315V58.3352ZM173.633 84.0196C176.048 84.0196 178.165 83.5587 179.984 82.6369C181.831 81.7151 183.251 80.4302 184.246 78.7821C185.24 77.1061 185.738 75.1788 185.738 73C185.738 70.8212 185.24 68.9078 184.246 67.2598C183.251 65.5838 181.831 64.2849 179.984 63.3631C178.165 62.4413 176.048 61.9804 173.633 61.9804H165.577V84.0196H173.633Z" fill="#72A5E0"/>
<path d="M179.935 50.3938C179.935 50.3938 181.369 54.2496 180.542 55.6083C179.709 56.967 176.385 56.7038 175.365 57.3482C174.635 57.8101 174.645 59.0882 175.102 59.6145C175.553 60.1461 182.131 59.6896 183.42 57.1979C184.709 54.7061 182.958 49.9374 182.958 49.9374L179.935 50.3938ZM190.439 49.9374L187.641 50.5442C187.641 50.5442 188.849 55.6083 187.867 57.2731C186.884 58.9378 183.361 60.7153 182.727 62.1116C182.158 63.3575 183.56 64.3778 185.751 63.0191C187.942 61.6605 190.423 59.6306 190.89 58.6317C192.029 56.2151 190.439 49.9374 190.439 49.9374Z" fill="#FFA665"/>
<path d="M171.316 11.7607C165.366 13.0979 160.731 18.1136 162.471 25.7447C163.502 30.2717 164.136 31.8667 164.512 33.9073C165.307 38.1981 165.092 40.083 166.907 44.014C168.835 48.1974 175.929 53.5676 184.773 52.2787C193.618 50.9899 197.173 49.7816 197.173 49.7816L200.347 46.9837L203.37 46.2265L203.821 44.0355C203.821 44.0355 206.082 43.9335 206.544 43.2031C207.275 42.0432 206.845 41.0873 205.561 40.6308C204.278 40.1797 203.521 39.7984 203.521 39.7984C203.521 39.7984 215.996 31.5552 217.505 30.653C219.014 29.7508 221.361 28.1935 221.473 27.6296C221.758 26.1958 217.881 23.0166 212.817 21.5076C207.752 19.9932 203.403 19.5797 202.688 20.1489C201.738 20.8954 197.549 28.7681 194.751 28.3922C191.121 27.8981 188.629 24.4988 187.947 22.5709C187.174 20.3852 182.529 9.24208 171.316 11.7607V11.7607Z" fill="#B7D8FF"/>
<path d="M163.679 23.5536C162.772 23.4032 160.452 25.8735 160.001 26.475C159.55 27.0764 158.836 27.941 159.093 28.5908C159.496 29.6004 161.564 29.6541 162.772 29.7508C164.034 29.8528 166.45 30.0515 166.853 29.2997C167.256 28.5425 166.402 26.6307 165.693 25.4707C165.038 24.3913 164.625 23.7147 163.679 23.5536V23.5536Z" fill="#FFA665"/>
<path d="M173.566 25.744C174.75 25.6012 175.584 24.4447 175.429 23.1608C175.274 21.877 174.189 20.9521 173.005 21.0949C171.822 21.2377 170.988 22.3942 171.143 23.6781C171.297 24.9619 172.383 25.8868 173.566 25.744Z" fill="#2A2D2F"/>
<path d="M180.386 39.5836C179.339 39.9649 180.714 43.665 182.126 45.3298C183.613 47.0804 187.211 51.0114 192.711 51.5269C196.443 51.8814 198.102 50.8235 198.983 49.8622C199.638 49.148 200.342 48.3209 200.825 47.945C201.528 47.3919 202.237 47.8699 203.446 46.9891C204.315 46.3555 204.503 45.3029 204.96 44.9216C205.411 44.5457 206.179 44.6316 206.571 44.2665C207.274 43.6113 207.178 41.6941 206.673 41.5975C206.168 41.5008 206.12 42.9561 205.615 43.1602C205.11 43.3643 204.439 43.2354 203.499 43.767C202.694 44.2181 202.946 45.1257 202.393 45.5284C201.84 45.9312 200.83 45.3781 199.472 46.1353C198.736 46.5434 198.113 48.5035 195.992 48.96C193.36 49.5239 189.413 47.6067 187.523 46.2373C183.135 43.0582 182.174 38.9285 180.386 39.5836V39.5836Z" fill="#72A5E0"/>
</svg>
